<svg width="63" height="45" viewBox="0 0 63 45" fill="none" xmlns="http://www.w3.org/2000/svg">
<g clip-path="url(#clip0_654_45523)">
<path d="M3.90179 2.95685L39.555 7.41519e-06C42.9018 -0.27993 45.2255 3.30677 43.6301 6.29861L27.2428 36.8643C25.7515 39.6637 21.8671 39.8911 20.0463 37.2842L0.780398 9.67536C-1.10978 6.98096 0.64167 3.21929 3.90179 2.95685Z" fill="#8195FF"/>
<path d="M17.9133 8.83553L53.5665 5.89619C56.9133 5.61625 59.237 9.20295 57.6416 12.1948L41.2544 42.7605C39.763 45.5599 35.8786 45.7873 34.0578 43.1804L14.7919 15.554C12.9018 12.8596 14.6532 9.09798 17.9133 8.83553Z" fill="white"/>
<path d="M55.1965 45C59.5063 45 63 41.475 63 37.1268C63 32.7785 59.5063 29.2535 55.1965 29.2535C50.8868 29.2535 47.3931 32.7785 47.3931 37.1268C47.3931 41.475 50.8868 45 55.1965 45Z" fill="#8195FF"/>
</g>
<defs>
<clipPath id="clip0_654_45523">
<rect width="63" height="45" fill="white"/>
</clipPath>
</defs>
</svg>
