<svg width="48" height="48" viewBox="0 0 48 48" fill="none" xmlns="http://www.w3.org/2000/svg">
<path opacity="0.1" d="M24 48C17.9321 48 12.0895 45.7016 7.64798 41.5673C3.20647 37.4331 0.495808 31.7699 0.0615427 25.7176C-0.372722 19.6653 1.50165 13.6732 5.30742 8.94718C9.11319 4.22118 14.5678 1.11216 20.5735 0.245855C26.5792 -0.620448 32.6902 0.820272 37.6764 4.27805C42.6627 7.73583 46.1541 12.954 47.448 18.8823C48.7419 24.8106 47.7422 31.009 44.6502 36.2299C41.5581 41.4508 36.6032 45.3068 30.7827 47.0216L28.3409 38.7338C32.0661 37.6363 35.2372 35.1685 37.2161 31.8271C39.195 28.4857 39.8348 24.5188 39.0067 20.7247C38.1786 16.9305 35.9441 13.5909 32.7529 11.378C29.5617 9.16497 25.6507 8.24291 21.8071 8.79735C17.9634 9.35178 14.4724 11.3416 12.0367 14.3662C9.60106 17.3908 8.40146 21.2258 8.67939 25.0993C8.95732 28.9728 10.6921 32.5972 13.5347 35.2431C16.3773 37.889 20.1166 39.36 24 39.36L24 48Z" fill="white"/>
<path d="M24 4C24 1.79086 25.803 -0.0339258 27.9815 0.332568C30.0177 0.675118 32.0068 1.27994 33.898 2.1361C37.0078 3.54395 39.7816 5.59904 42.034 8.16414C44.2865 10.7292 45.9658 13.7454 46.9599 17.0111C47.9539 20.2768 48.2399 23.7171 47.7987 27.1021C47.3574 30.4872 46.1991 33.7392 44.4011 36.641C42.6031 39.5428 40.2067 42.0276 37.372 43.9296C34.5373 45.8316 31.3294 47.107 27.9626 47.6706C25.9151 48.0134 23.8375 48.0881 21.7815 47.8972C19.5818 47.693 18.3068 45.467 18.8731 43.3317L19.0372 42.7131C19.6035 40.5778 21.809 39.3626 24.0182 39.36C24.8596 39.359 25.7017 39.2889 26.5361 39.1492C28.6908 38.7885 30.7439 37.9722 32.5581 36.7549C34.3723 35.5377 35.906 33.9474 37.0567 32.0902C38.2075 30.2331 38.9488 28.1518 39.2311 25.9854C39.5135 23.8189 39.3305 21.6172 38.6943 19.5271C38.0581 17.437 36.9833 15.5067 35.5418 13.8651C34.1002 12.2234 32.325 10.9081 30.3347 10.0071C29.564 9.65822 28.768 9.37455 27.955 9.1579C25.8203 8.58909 24 6.84914 24 4.64V4Z" fill="#27D323"/>
<path d="M19.238 19.802H14.114V23.386C14.3473 23.0593 14.688 22.7933 15.136 22.588C15.584 22.3733 16.0693 22.266 16.592 22.266C17.3573 22.266 17.9827 22.4247 18.468 22.742C18.9533 23.05 19.3033 23.456 19.518 23.96C19.7327 24.4547 19.84 24.9867 19.84 25.556C19.84 26.2093 19.714 26.802 19.462 27.334C19.2193 27.8567 18.8413 28.272 18.328 28.58C17.824 28.888 17.194 29.042 16.438 29.042C15.4767 29.042 14.6973 28.7947 14.1 28.3C13.5027 27.796 13.1387 27.1193 13.008 26.27H13.974C14.0953 26.886 14.3753 27.362 14.814 27.698C15.2527 28.034 15.794 28.202 16.438 28.202C17.25 28.202 17.8613 27.964 18.272 27.488C18.692 27.0027 18.902 26.3633 18.902 25.57C18.902 24.7953 18.692 24.1933 18.272 23.764C17.852 23.3253 17.25 23.106 16.466 23.106C15.9247 23.106 15.4487 23.232 15.038 23.484C14.6273 23.736 14.324 24.0767 14.128 24.506H13.204V18.948H19.238V19.802ZM21.3546 28.23C23.072 26.942 24.3973 25.7893 25.3306 24.772C26.2733 23.7453 26.7446 22.742 26.7446 21.762C26.7446 21.118 26.5813 20.6047 26.2546 20.222C25.9373 19.83 25.4146 19.634 24.6866 19.634C23.9773 19.634 23.4266 19.858 23.0346 20.306C22.652 20.7447 22.4373 21.3327 22.3906 22.07H21.4386C21.4946 21.034 21.812 20.2313 22.3906 19.662C22.9786 19.0833 23.744 18.794 24.6866 18.794C25.592 18.794 26.3246 19.0507 26.8846 19.564C27.4446 20.068 27.7246 20.7867 27.7246 21.72C27.7246 22.8493 27.2533 23.946 26.3106 25.01C25.3773 26.0647 24.2246 27.096 22.8526 28.104H28.0326V28.93H21.3546V28.23Z" fill="white"/>
<path d="M29.43 22.33C29.43 21.9033 29.56 21.56 29.82 21.3C30.0867 21.0333 30.4233 20.9 30.83 20.9C31.2433 20.9 31.58 21.0333 31.84 21.3C32.1067 21.56 32.24 21.9033 32.24 22.33C32.24 22.7633 32.1067 23.1133 31.84 23.38C31.58 23.64 31.2433 23.77 30.83 23.77C30.4233 23.77 30.0867 23.64 29.82 23.38C29.56 23.1133 29.43 22.7633 29.43 22.33ZM35.03 21L30.93 28H30.22L34.33 21H35.03ZM30.83 21.35C30.5767 21.35 30.3733 21.4367 30.22 21.61C30.0733 21.7767 30 22.0167 30 22.33C30 22.6433 30.0733 22.8867 30.22 23.06C30.3733 23.2333 30.5767 23.32 30.83 23.32C31.0833 23.32 31.2867 23.2333 31.44 23.06C31.5933 22.8867 31.67 22.6433 31.67 22.33C31.67 22.0233 31.5933 21.7833 31.44 21.61C31.2867 21.4367 31.0833 21.35 30.83 21.35ZM33.03 26.67C33.03 26.2367 33.16 25.89 33.42 25.63C33.6867 25.3633 34.0233 25.23 34.43 25.23C34.8367 25.23 35.17 25.3633 35.43 25.63C35.6967 25.89 35.83 26.2367 35.83 26.67C35.83 27.1033 35.6967 27.4533 35.43 27.72C35.17 27.98 34.8367 28.11 34.43 28.11C34.0233 28.11 33.6867 27.98 33.42 27.72C33.16 27.4533 33.03 27.1033 33.03 26.67ZM34.43 25.69C34.1767 25.69 33.9733 25.7767 33.82 25.95C33.6667 26.1233 33.59 26.3633 33.59 26.67C33.59 26.9767 33.6667 27.2167 33.82 27.39C33.9733 27.5633 34.1767 27.65 34.43 27.65C34.6833 27.65 34.8833 27.5667 35.03 27.4C35.1833 27.2267 35.26 26.9833 35.26 26.67C35.26 26.3567 35.1833 26.1167 35.03 25.95C34.8833 25.7767 34.6833 25.69 34.43 25.69Z" fill="white"/>
</svg>
