<svg width="24" height="10" viewBox="0 0 24 10" fill="none" xmlns="http://www.w3.org/2000/svg">
<g clip-path="url(#clip0_654_45744)">
<path d="M22.914 6.44122H20V7.99997H23.3207V9.08803H18.7751V3.02753H23.1727V4.10108H20V5.38822H22.914V6.44122Z" fill="white"/>
<path d="M10.0251 6.44104H7.11162V7.99979H10.4323V9.08785H5.88672V3.02734H10.2859V4.1009H7.11162V5.38803H10.0251V6.44104Z" fill="white"/>
<path d="M17.8174 6.44122H14.9035V7.99997H18.2241V9.08803H13.6786V3.02753H18.0778V4.10108H14.9035V5.38822H17.8174V6.44122Z" fill="white"/>
<path d="M23.7275 2.97673C22.5405 3.89876 21.0998 4.15506 19.7043 4.32069C18.3087 4.48631 16.8777 4.59149 15.5866 5.2673C14.2955 5.94311 13.1456 7.33381 13.012 9.05899C12.5626 9.03925 11.3732 9.01869 10.9238 8.99975C11.1268 6.99127 12.7105 5.31364 14.079 4.23767C15.4813 3.1351 16.6819 2.87961 18.3111 2.60316C20.1401 2.29326 22.4248 2.53183 23.6481 0.908203" fill="#67AF56"/>
<path d="M0.437536 0.908203C1.72783 2.44519 4.2486 3.06539 6.14138 3.121C7.87706 3.17218 8.96998 3.45064 10.4477 4.49478C11.8907 5.51312 12.7806 7.18833 12.9948 9.08881C12.4641 9.07068 11.3967 9.07028 10.9214 9.08881C10.7806 7.45591 10.2172 6.10672 8.85554 5.46879C7.49388 4.83087 5.98747 4.72931 4.51536 4.57336C3.04324 4.4174 1.52487 4.174 0.272461 3.30073L0.437536 0.908203Z" fill="#9AFF88"/>
<path d="M7.11162 5.35742H10.0251V6.41002H7.11162V7.96877H10.4323V9.05885H5.88672" fill="white"/>
<path d="M2.79164 6.71243H1.49736V9.09004H0.272461V3.02753H3.2147C3.63522 3.03559 3.95873 3.08771 4.18521 3.18389C4.40775 3.27673 4.60514 3.42194 4.76097 3.60742C4.89044 3.75967 4.99491 3.93192 5.07039 4.1176C5.14929 4.32039 5.18804 4.53685 5.18443 4.75472C5.18212 5.05143 5.10806 5.34306 4.96871 5.60422C4.82464 5.88281 4.58726 6.07961 4.25658 6.19459C4.5333 6.30662 4.72921 6.46634 4.84431 6.67374C4.95941 6.88115 5.01709 7.19709 5.01736 7.62156V8.02858C5.01736 8.30583 5.02826 8.49389 5.05005 8.59276C5.0617 8.66332 5.08802 8.73058 5.12726 8.79011C5.1665 8.84964 5.21779 8.90008 5.27773 8.93812V9.09004H3.89852C3.86024 8.95572 3.83299 8.84745 3.81678 8.76524C3.78417 8.59249 3.76656 8.4172 3.76415 8.24136L3.75577 7.67718C3.75072 7.29085 3.68095 7.03307 3.54644 6.90385C3.41194 6.77462 3.16034 6.71082 2.79164 6.71243ZM3.55242 5.61026C3.80203 5.49528 3.92683 5.26773 3.92683 4.92761C3.92683 4.56008 3.80615 4.31332 3.56478 4.18732C3.42868 4.11586 3.2252 4.08026 2.95432 4.08053H1.49736V5.70899H2.91724C3.19981 5.70899 3.41154 5.67608 3.55242 5.61026Z" fill="white"/>
<path d="M17.8174 6.44122H14.9035V7.99997H18.2241V9.08803H13.6786V3.02753H18.0778V4.10108H14.9035V5.38822H17.8174V6.44122Z" fill="white"/>
</g>
<defs>
<clipPath id="clip0_654_45744">
<rect width="23.4545" height="8.18182" fill="white" transform="translate(0.272461 0.908203)"/>
</clipPath>
</defs>
</svg>
