<svg width="32" height="47" viewBox="0 0 32 47" fill="none" xmlns="http://www.w3.org/2000/svg">
<path d="M4.00012 13.0003H3.00012C2.73491 13.0003 2.48055 13.1057 2.29302 13.2932C2.10548 13.4808 2.00012 13.7351 2.00012 14.0003C2.00012 14.2656 2.10548 14.5199 2.29302 14.7074C2.48055 14.895 2.73491 15.0003 3.00012 15.0003H4.00012C4.26534 15.0003 4.51969 14.895 4.70723 14.7074C4.89477 14.5199 5.00012 14.2656 5.00012 14.0003C5.00012 13.7351 4.89477 13.4808 4.70723 13.2932C4.51969 13.1057 4.26534 13.0003 4.00012 13.0003Z" fill="#FFC806"/>
<path d="M19.0713 6.92968C18.8837 6.74218 18.6294 6.63684 18.3642 6.63684C18.099 6.63684 17.8447 6.74218 17.6572 6.92968L16.9502 7.63668C16.8544 7.72886 16.7779 7.83922 16.7253 7.96131C16.6726 8.08339 16.6449 8.21474 16.6436 8.34768C16.6423 8.48062 16.6676 8.61248 16.7179 8.73555C16.7682 8.85861 16.8425 8.97041 16.9365 9.06441C17.0305 9.15841 17.1424 9.23272 17.2654 9.28299C17.3885 9.33326 17.5204 9.35848 17.6533 9.35718C17.7863 9.35588 17.9176 9.32809 18.0397 9.27543C18.1617 9.22277 18.2721 9.14629 18.3643 9.05048L19.0713 8.34348C19.2587 8.15596 19.3639 7.90169 19.3639 7.63658C19.3639 7.37146 19.2587 7.1172 19.0713 6.92968Z" fill="#FFCC48"/>
<path d="M12 7.00034C12.2652 7.00034 12.5196 6.89498 12.7071 6.70744C12.8946 6.51991 13 6.26555 13 6.00034V5.00034C13 4.73512 12.8946 4.48077 12.7071 4.29323C12.5196 4.10569 12.2652 4.00034 12 4.00034C11.7348 4.00034 11.4804 4.10569 11.2929 4.29323C11.1054 4.48077 11 4.73512 11 5.00034V6.00034C11 6.26555 11.1054 6.51991 11.2929 6.70744C11.4804 6.89498 11.7348 7.00034 12 7.00034Z" fill="#FFCC48"/>
<path d="M7.05057 9.05033C7.23807 8.8628 7.3434 8.60847 7.3434 8.34328C7.3434 8.07809 7.23807 7.82376 7.05057 7.63623L6.34357 6.92923C6.1552 6.74565 5.9021 6.64369 5.63908 6.64541C5.37607 6.64713 5.12432 6.7524 4.93837 6.93843C4.75243 7.12445 4.64726 7.37625 4.64565 7.63926C4.64404 7.90228 4.74612 8.15534 4.92977 8.34363L5.63677 9.05063C5.82433 9.238 6.07862 9.34322 6.34373 9.34316C6.60885 9.34311 6.86309 9.23778 7.05057 9.05033Z" fill="#FFC806"/>
<path d="M12.0006 8.00037C10.5137 8.0009 9.07995 8.55343 7.97728 9.55088C6.8746 10.5483 6.18152 11.9196 6.03236 13.399C5.8832 14.8784 6.2886 16.3604 7.16997 17.5579C8.05134 18.7554 9.34591 19.583 10.8028 19.8804C10.9466 19.9094 11.0951 19.9064 11.2377 19.8716C11.3803 19.8368 11.5135 19.7711 11.6278 19.679C11.7422 19.587 11.8348 19.4709 11.8992 19.339C11.9637 19.2071 11.9982 19.0626 12.0006 18.9159C12.0297 17.6214 12.5569 16.3879 13.4725 15.4723C14.3881 14.5568 15.6215 14.0295 16.9161 14.0004C17.0628 13.998 17.2073 13.9634 17.3391 13.899C17.471 13.8346 17.5871 13.7419 17.6791 13.6276C17.7712 13.5133 17.8369 13.3801 17.8717 13.2375C17.9065 13.0949 17.9095 12.9464 17.8805 12.8026C17.6024 11.4479 16.8657 10.2305 15.7946 9.35567C14.7235 8.48087 13.3835 8.0022 12.0006 8.00037Z" fill="#FFCC48"/>
<path d="M12.4003 17.0404C12.1442 17.6345 12.0083 18.2734 12.0003 18.9204C11.998 19.0664 11.9637 19.2102 11.8998 19.3415C11.8358 19.4728 11.7438 19.5885 11.6303 19.6804C11.4506 19.8218 11.2289 19.8992 11.0003 19.9004C10.9332 19.8987 10.8663 19.892 10.8003 19.8804C9.42984 19.6008 8.20015 18.8513 7.32379 17.7612C6.44743 16.6712 5.97947 15.3092 6.00082 13.9107C6.02217 12.5122 6.53149 11.1652 7.44072 10.1024C8.34995 9.03961 9.60194 8.32792 10.9803 8.09036C11.0843 11.1207 11.5612 14.1267 12.4003 17.0404Z" fill="#FFC806"/>
<path d="M24.0004 16.0004C23.7821 16.0004 23.564 16.0127 23.3471 16.037C22.7054 14.6648 21.636 13.5376 20.2995 12.8246C18.9629 12.1116 17.4311 11.8512 15.934 12.0824C14.4369 12.3136 13.0551 13.024 11.9959 14.1071C10.9368 15.1901 10.2573 16.5874 10.0595 18.0893C8.83698 18.323 7.74556 19.0042 6.99862 19.9998C6.25167 20.9955 5.90293 22.2339 6.02056 23.473C6.13819 24.7121 6.71374 25.8627 7.63469 26.7C8.55563 27.5373 9.75576 28.001 11.0004 28.0004H24.0004C25.5917 28.0004 27.1178 27.3683 28.2431 26.2431C29.3683 25.1178 30.0004 23.5917 30.0004 22.0004C30.0004 20.4091 29.3683 18.883 28.2431 17.7578C27.1178 16.6326 25.5917 16.0004 24.0004 16.0004Z" fill="#9BBDFF"/>
<path d="M25.9996 19.0003C25.9996 19.2655 25.8943 19.5199 25.7067 19.7074C25.5192 19.8949 25.2648 20.0003 24.9996 20.0003C24.7344 20.0003 24.48 19.8949 24.2925 19.7074C24.105 19.5199 23.9996 19.2655 23.9996 19.0003C23.9977 18.2712 23.8865 17.5464 23.6696 16.8503C23.5794 16.5741 23.4726 16.3036 23.3496 16.0403C23.5651 16.0117 23.7823 15.9984 23.9996 16.0003C24.5268 15.9986 25.0517 16.0692 25.5596 16.2103C25.5596 16.2203 25.5696 16.2403 25.5696 16.2503C25.8544 17.1392 25.9995 18.0669 25.9996 19.0003Z" fill="#51A1FF"/>
<path d="M12.8397 18.3504C12.2541 18.1183 11.6297 17.9995 10.9997 18.0004C10.6842 18.0002 10.3694 18.0303 10.0597 18.0904C10.1482 17.3717 10.3543 16.6723 10.6697 16.0204C10.7789 16.0038 10.8893 15.9971 10.9997 16.0004C11.3782 16.0002 11.756 16.0303 12.1297 16.0904C12.3397 16.8504 12.5697 17.6004 12.8397 18.3504Z" fill="#9BBDFF"/>
<path d="M15.4497 18.8604C15.369 18.965 15.2685 19.0526 15.154 19.1182C15.0394 19.1838 14.913 19.2262 14.782 19.2429C14.6511 19.2597 14.5181 19.2504 14.3907 19.2156C14.2633 19.1809 14.144 19.1213 14.0397 19.0404C13.482 18.6082 12.8385 18.2998 12.1522 18.136C11.4659 17.9722 10.7525 17.9566 10.0597 18.0904C10.1482 17.3717 10.3543 16.6723 10.6697 16.0204C10.7789 16.0038 10.8893 15.9971 10.9997 16.0004C12.5467 15.993 14.0511 16.5073 15.2697 17.4604C15.4783 17.6228 15.6143 17.8611 15.648 18.1234C15.6817 18.3856 15.6104 18.6505 15.4497 18.8604Z" fill="#51A1FF"/>
<path d="M9.0742 31.732L5.1682 41H4.1742L8.1222 31.816H2.5222V30.976H9.0742V31.732ZM16.301 33.412C16.0957 32.1987 15.391 31.592 14.187 31.592C13.2724 31.592 12.5864 31.9467 12.129 32.656C11.6717 33.3653 11.4617 34.5273 11.499 36.142C11.6857 35.582 12.0404 35.1433 12.563 34.826C13.095 34.4993 13.7017 34.336 14.383 34.336C15.363 34.336 16.1377 34.6393 16.707 35.246C17.2857 35.8433 17.575 36.6693 17.575 37.724C17.575 38.34 17.4537 38.9 17.211 39.404C16.9777 39.8987 16.6137 40.2953 16.119 40.594C15.6337 40.8927 15.027 41.042 14.299 41.042C12.9084 41.042 11.947 40.5987 11.415 39.712C10.8924 38.8253 10.631 37.57 10.631 35.946C10.631 32.4927 11.8164 30.766 14.187 30.766C15.083 30.766 15.7877 31.0133 16.301 31.508C16.8144 31.9933 17.1177 32.628 17.211 33.412H16.301ZM14.201 35.176C13.7624 35.176 13.347 35.2647 12.955 35.442C12.563 35.6193 12.241 35.89 11.989 36.254C11.7464 36.6087 11.625 37.0473 11.625 37.57C11.625 38.326 11.849 38.956 12.297 39.46C12.745 39.964 13.3984 40.216 14.257 40.216C14.9757 40.216 15.5497 39.9967 15.979 39.558C16.4084 39.1193 16.623 38.522 16.623 37.766C16.623 36.954 16.413 36.3193 15.993 35.862C15.573 35.4047 14.9757 35.176 14.201 35.176ZM18.8337 33.692C18.8337 32.9547 19.0531 32.362 19.4917 31.914C19.9304 31.466 20.4951 31.242 21.1857 31.242C21.8764 31.242 22.4411 31.466 22.8797 31.914C23.3184 32.362 23.5377 32.9547 23.5377 33.692C23.5377 34.1773 23.4351 34.6067 23.2297 34.98C23.0337 35.344 22.7537 35.6287 22.3897 35.834C22.0351 36.0393 21.6291 36.142 21.1717 36.142C20.4717 36.142 19.9071 35.918 19.4777 35.47C19.0484 35.022 18.8337 34.4293 18.8337 33.692ZM22.7257 33.692C22.7257 33.1133 22.5811 32.6607 22.2917 32.334C22.0024 32.0073 21.6291 31.844 21.1717 31.844C20.7237 31.844 20.3551 32.0073 20.0657 32.334C19.7764 32.6607 19.6317 33.1133 19.6317 33.692C19.6317 34.2707 19.7717 34.7233 20.0517 35.05C20.3411 35.3673 20.7144 35.526 21.1717 35.526C21.6197 35.526 21.9884 35.3673 22.2777 35.05C22.5764 34.7233 22.7257 34.2707 22.7257 33.692ZM30.3495 31.214V32.026H26.0375V35.68H29.6775V36.492H26.0375V41H25.0575V31.214H30.3495Z" fill="white"/>
</svg>
