<svg width="72" height="72" viewBox="0 0 72 72" fill="none" xmlns="http://www.w3.org/2000/svg">
<g filter="url(#filter0_d_654_45543)">
<circle cx="40" cy="33" r="32" fill="#DEBD10"/>
</g>
<path d="M26.2661 43.4976C39.2684 24.2497 39.9912 23.1899 40.0636 23.265C40.1503 23.3548 55.012 45.3687 55.012 45.4071C44.428 45.446 36.3615 45.4327 24.959 45.4327L26.2661 43.4976Z" fill="#FCFCFC" stroke="#130000" stroke-width="0.0625" stroke-linecap="round" stroke-linejoin="round"/>
<path d="M20.5055 48.7063C19.2055 48.8853 19.1951 46.936 19.9034 46.3456L39.012 18.4437C39.624 17.8756 40.433 17.8139 41.1339 18.3743L60.2151 46.371C60.4648 46.8776 61.2288 48.1903 59.72 48.7254L20.5055 48.7063ZM55.2491 45.484L40.0208 22.9435L24.7748 45.4906L55.2491 45.484Z" fill="#DEBD10" stroke="black" stroke-width="0.156081"/>
<path d="M35.5024 45.005C35.3416 44.8381 35.077 44.4624 34.9145 44.1701C34.7521 43.8779 34.2247 43.2396 33.7426 42.7516C32.9857 41.9855 32.8472 41.7266 32.728 40.8542C32.5392 39.4728 32.1005 39.4115 31.0839 40.6245C30.3678 41.4789 29.9776 41.6404 29.8681 41.1274C29.8389 40.9904 30.5047 40.1945 31.3478 39.3588L32.8806 37.8393L32.5809 37.312C32.1257 36.511 32.2761 36.0383 33.0065 35.9739C33.738 35.9094 34.0749 36.342 33.9028 37.1248C33.7524 37.8092 34.1891 38.0159 35.4611 37.8625C37.1389 37.6601 37.6164 37.2775 38.732 35.2406C39.4878 33.8608 39.9646 33.2281 40.719 32.6039C41.709 31.7848 41.7111 31.7809 41.4932 31.1351C41.3139 30.6034 41.3272 30.4148 41.5674 30.0812C41.9642 29.5302 42.897 29.6096 43.4103 30.2381C43.7714 30.6802 43.7724 30.7139 43.4432 31.3452L43.1037 31.9963L43.6824 32.4505C44.0006 32.7003 44.6638 33.3921 45.156 33.9878C46.091 35.1195 46.5085 35.4093 47.4604 35.5876C47.8612 35.6626 48.0323 35.7964 48.0323 36.0345C48.0323 36.6273 47.0235 36.5572 45.5593 35.8627C44.845 35.5239 44.187 35.2467 44.0971 35.2467C43.7401 35.2467 43.9714 36.2203 44.7268 37.8965C45.4985 39.6089 45.519 39.7058 45.479 41.4477L45.438 43.2384L46.0202 43.4231C46.6479 43.6222 46.7884 43.9922 46.301 44.1625C45.7764 44.3456 44.7507 44.2765 44.5384 44.0437C44.426 43.9204 44.2004 42.7763 44.0371 41.5011C43.8738 40.2259 43.6445 39.0777 43.5275 38.9495C43.1158 38.498 42.815 38.7218 42.5004 39.7139C42.3264 40.2625 41.925 41.2802 41.6083 41.9753C41.0553 43.1894 41.0001 43.7331 41.3533 44.4846C41.5701 44.946 41.016 44.8675 40.3259 44.3391C39.6325 43.8081 39.6066 43.5441 40.1404 42.4461C40.7908 41.108 41.0979 39.0593 40.9533 37.0234C40.8834 36.0399 40.7469 35.1906 40.65 35.136C40.3437 34.9638 39.5922 35.769 39.1648 36.7273C38.758 37.6393 38.7369 37.6552 37.4827 37.9989C36.7841 38.1903 35.9829 38.398 35.7022 38.4605C34.2544 38.7828 34.2987 39.9743 35.8144 41.477C36.3521 42.01 36.9779 42.7206 37.205 43.0559C37.4321 43.3913 37.8892 43.8482 38.2207 44.0712C38.6322 44.348 38.7614 44.5331 38.6281 44.6544C38.2452 45.0029 37.4932 44.6096 36.6888 43.64C35.7261 42.4798 35.2336 42.0125 34.9733 42.0125C34.4536 42.0125 35.1601 43.3976 36.1939 44.4054C36.6836 44.8829 36.7333 45.0037 36.4962 45.1401C36.0801 45.3795 35.8306 45.3456 35.5024 45.005Z" fill="black"/>
<path d="M39.8188 24.4399L39.7501 29.4975H38.953L38.8843 24.4399H39.8188ZM39.3516 31.5315C39.1821 31.5315 39.0366 31.4708 38.9152 31.3494C38.7938 31.228 38.7331 31.0826 38.7331 30.9131C38.7331 30.7436 38.7938 30.5981 38.9152 30.4767C39.0366 30.3553 39.1821 30.2946 39.3516 30.2946C39.5211 30.2946 39.6665 30.3553 39.7879 30.4767C39.9093 30.5981 39.97 30.7436 39.97 30.9131C39.97 31.0253 39.9414 31.1284 39.8841 31.2223C39.8291 31.3162 39.7547 31.3918 39.6608 31.4491C39.5692 31.504 39.4661 31.5315 39.3516 31.5315Z" fill="black"/>
<defs>
<filter id="filter0_d_654_45543" x="0" y="0" width="72" height="72" filterUnits="userSpaceOnUse" color-interpolation-filters="sRGB">
<feFlood flood-opacity="0" result="BackgroundImageFix"/>
<feColorMatrix in="SourceAlpha" type="matrix" values="0 0 0 0 0 0 0 0 0 0 0 0 0 0 0 0 0 0 127 0" result="hardAlpha"/>
<feOffset dx="-4" dy="3"/>
<feGaussianBlur stdDeviation="2"/>
<feComposite in2="hardAlpha" operator="out"/>
<feColorMatrix type="matrix" values="0 0 0 0 0 0 0 0 0 0 0 0 0 0 0 0 0 0 0.24 0"/>
<feBlend mode="normal" in2="BackgroundImageFix" result="effect1_dropShadow_654_45543"/>
<feBlend mode="normal" in="SourceGraphic" in2="effect1_dropShadow_654_45543" result="shape"/>
</filter>
</defs>
</svg>
