<svg width="72" height="72" viewBox="0 0 72 72" fill="none" xmlns="http://www.w3.org/2000/svg">
<g filter="url(#filter0_d_654_45568)">
<circle cx="40" cy="33" r="32" fill="#032764"/>
</g>
<mask id="path-2-inside-1_654_45568" fill="white">
<path d="M24.3139 37.5024C21.8463 34.3745 20.5042 30.5066 20.5039 26.5224V16.7424C24.6161 14.6145 29.1787 13.5039 33.8089 13.5039C38.4391 13.5039 43.0017 14.6145 47.1139 16.7424"/>
</mask>
<path d="M15.6777 44.3154C19.4404 49.085 26.3572 49.9013 31.1268 46.1387C35.8965 42.376 36.7128 35.4592 32.9501 30.6895L15.6777 44.3154ZM20.5039 26.5224H9.50391V26.5232L20.5039 26.5224ZM20.5039 16.7424L15.4485 6.97297C11.7969 8.86257 9.50391 12.6309 9.50391 16.7424H20.5039ZM42.0585 26.5119C47.454 29.304 54.0913 27.1934 56.8834 21.7979C59.6754 16.4023 57.5649 9.765 52.1693 6.97297L42.0585 26.5119ZM32.9501 30.6895C32.0135 29.5022 31.504 28.034 31.5039 26.5217L9.50391 26.5232C9.50434 32.9791 11.6792 39.2467 15.6777 44.3154L32.9501 30.6895ZM31.5039 26.5224V16.7424H9.50391V26.5224H31.5039ZM25.5593 26.5119C28.1091 25.1925 30.9381 24.5039 33.8089 24.5039V2.50391C27.4194 2.50391 21.1232 4.03647 15.4485 6.97297L25.5593 26.5119ZM33.8089 24.5039C36.6798 24.5039 39.5087 25.1925 42.0585 26.5119L52.1693 6.97297C46.4946 4.03647 40.1984 2.50391 33.8089 2.50391V24.5039Z" fill="white" mask="url(#path-2-inside-1_654_45568)"/>
<path d="M42.3728 52.3229C41.323 52.5602 40.2318 52.5452 39.1889 52.2794C38.1459 52.0133 37.1809 51.5039 36.3728 50.7929C33.5656 48.3728 31.4868 45.2198 30.3689 41.6859C29.2511 38.1522 29.1381 34.3771 30.0428 30.7829L32.2328 22.0229C36.9893 20.8166 41.9708 20.81 46.7304 22.0038C51.49 23.1977 55.8788 25.5545 59.5028 28.8629L57.3128 37.5929C56.4299 41.1904 54.566 44.4722 51.9281 47.0729C49.2905 49.6736 45.9825 51.491 42.3728 52.3229Z" fill="white" stroke="#032764" stroke-linecap="round" stroke-linejoin="round"/>
<path d="M35.834 31.5348C36.2124 31.1388 36.6921 30.8539 37.2209 30.7111C37.7498 30.5683 38.3076 30.5731 38.834 30.7248C39.3491 30.846 39.8231 31.1014 40.2077 31.4649C40.5924 31.8285 40.874 32.2873 41.024 32.7948" stroke="#032764" stroke-linecap="round" stroke-linejoin="round"/>
<path d="M47.7109 34.5032C48.0773 34.1095 48.5427 33.8215 49.0585 33.6694C49.5742 33.5173 50.1214 33.5066 50.6428 33.6385C51.1642 33.7703 51.6403 34.0399 52.0219 34.419C52.4032 34.798 52.6759 35.2727 52.8109 35.7932" stroke="#032764" stroke-linecap="round" stroke-linejoin="round"/>
<defs>
<filter id="filter0_d_654_45568" x="0" y="0" width="72" height="72" filterUnits="userSpaceOnUse" color-interpolation-filters="sRGB">
<feFlood flood-opacity="0" result="BackgroundImageFix"/>
<feColorMatrix in="SourceAlpha" type="matrix" values="0 0 0 0 0 0 0 0 0 0 0 0 0 0 0 0 0 0 127 0" result="hardAlpha"/>
<feOffset dx="-4" dy="3"/>
<feGaussianBlur stdDeviation="2"/>
<feComposite in2="hardAlpha" operator="out"/>
<feColorMatrix type="matrix" values="0 0 0 0 0 0 0 0 0 0 0 0 0 0 0 0 0 0 0.24 0"/>
<feBlend mode="normal" in2="BackgroundImageFix" result="effect1_dropShadow_654_45568"/>
<feBlend mode="normal" in="SourceGraphic" in2="effect1_dropShadow_654_45568" result="shape"/>
</filter>
</defs>
</svg>
